<?xml version="1.0" encoding="utf-8"?>
<!-- Generator: Adobe Illustrator 16.0.0, SVG Export Plug-In . SVG Version: 6.00 Build 0)  -->
<!DOCTYPE svg PUBLIC "-//W3C//DTD SVG 1.1//EN" "http://www.w3.org/Graphics/SVG/1.1/DTD/svg11.dtd">
<svg version="1.1" id="Layer_1" xmlns="http://www.w3.org/2000/svg" xmlns:xlink="http://www.w3.org/1999/xlink" x="0px" y="0px"
	 width="512px" height="490.667px" viewBox="0 0 512 490.667" enable-background="new 0 0 512 490.667" xml:space="preserve">
<path fill="#2196F3" d="M512,184.533v33.92L275.84,341.76c-12.373,6.4-27.307,6.4-39.68,0L0,218.453v-33.92
	c0-17.707,9.813-33.92,25.387-42.24l208-111.147c14.08-7.466,31.146-7.466,45.227,0l208,111.147
	C502.187,150.613,512,166.827,512,184.533L512,184.533z"/>
<path fill="#ECEFF1" d="M448,58.667C448,26.261,421.738,0,389.333,0H122.667C90.261,0,64,26.261,64,58.667V428.16
	c0,8.832,7.168,16,16,16h352c8.832,0,16-7.168,16-16V58.667z"/>
<path fill="#64B5F6" d="M512,218.453v224.214c0,26.453-21.547,48-48,48H48c-26.453,0-48-21.547-48-48V218.453L236.16,341.76
	c12.373,6.4,27.307,6.4,39.68,0L512,218.453z"/>
<g>
	<path fill="#90A4AE" d="M341.333,213.333H170.667c-11.776,0-21.333-9.558-21.333-21.333s9.557-21.333,21.333-21.333h170.667
		c11.776,0,21.334,9.558,21.334,21.333S353.109,213.333,341.333,213.333z"/>
	<path fill="#90A4AE" d="M256,128h-85.333c-11.776,0-21.333-9.557-21.333-21.333c0-11.776,9.557-21.333,21.333-21.333H256
		c11.775,0,21.334,9.557,21.334,21.333C277.334,118.443,267.775,128,256,128z"/>
</g>
</svg>
